<svg xmlns="http://www.w3.org/2000/svg" version="1.1" xmlns:xlink="http://www.w3.org/1999/xlink" xmlns:svgjs="http://svgjs.dev/svgjs" width="1000" height="308" viewBox="0 0 1000 308"><g transform="matrix(1,0,0,1,-0.6060606060606233,-0.20989115553948068)"><svg viewBox="0 0 396 122" data-background-color="#fafafa" preserveAspectRatio="xMidYMid meet" height="308" width="1000" xmlns="http://www.w3.org/2000/svg" xmlns:xlink="http://www.w3.org/1999/xlink"><g id="tight-bounds" transform="matrix(1,0,0,1,0.2400000000000091,0.08313870446693272)"><svg viewBox="0 0 395.52 121.8337225910661" height="121.8337225910661" width="395.52"><g><svg viewBox="0 0 588.5346682021587 181.288858972914" height="121.8337225910661" width="395.52"><g transform="matrix(1,0,0,1,193.0146682021588,51.18740307650224)"><svg viewBox="0 0 395.52 78.91405281990951" height="78.91405281990951" width="395.52"><g><svg viewBox="0 0 395.52 78.91405281990951" height="78.91405281990951" width="395.52"><g><svg viewBox="0 0 395.52 49.669637020471356" height="49.669637020471356" width="395.52"><g transform="matrix(1,0,0,1,0,0)"><svg width="395.52" viewBox="2 -36.04999923706055 290.6300048828125 36.5" height="49.669637020471356" data-palette-color="#130912"><path d="M9.7 0L9.7 0Q8.45 0 6.08 0 3.7 0 2.85-0.35 2-0.7 2-1.45L2-1.45 2-33Q2-34.15 5.08-34.83 8.15-35.5 11.65-35.5 15.15-35.5 16.65-34.6 18.15-33.7 18.4-32.7L18.4-32.7 21.8-19.5 22.25-19.5 25.45-32.1Q25.8-33.45 28.73-34.48 31.65-35.5 35.15-35.5 38.65-35.5 40.33-34.95 42-34.4 42-33.55L42-33.55 42-1.45Q42-0.8 39.15-0.4 36.3 0 32.2 0 28.1 0 28.1-1.45L28.1-1.45Q28.1-5.4 28.95-15.5L28.95-15.5 28.5-15.5 25.9-2.45Q25.75-1.7 24.68-1.35 23.6-1 21.45-1 19.3-1 18.82-1.3 18.35-1.6 18.2-2.45L18.2-2.45 15.5-15.5 15.05-15.5Q15.95-5.2 15.95-1.45L15.95-1.45Q15.95-0.15 9.7 0ZM62.9 0.45L62.9 0.45Q58.75 0.45 55.77-0.33 52.8-1.1 50.3-3.1L50.3-3.1Q45.25-7.05 45.25-18.25L45.25-18.25Q45.25-22.95 46.62-26.45 48-29.95 50.45-32L50.45-32Q55.25-36 62.9-36L62.9-36Q66.85-36 69.77-35.3 72.7-34.6 75.3-32.75L75.3-32.75Q80.55-28.95 80.55-18.25L80.55-18.25Q80.55-8.65 75.8-4.1 71.05 0.45 62.9 0.45ZM61.25-8.13Q61.85-7.4 62.9-7.4 63.95-7.4 64.55-8.13 65.15-8.85 65.55-11.23 65.95-13.6 65.95-17.85 65.95-22.1 65.55-24.4 65.15-26.7 64.55-27.4 63.95-28.1 62.9-28.1 61.85-28.1 61.25-27.4 60.65-26.7 60.25-24.4 59.85-22.1 59.85-17.85 59.85-13.6 60.25-11.23 60.65-8.85 61.25-8.13ZM110.3-26.7L110.3-26.7Q110.3-21.65 106.3-19.15L106.3-19.15Q106.85-18.9 107.72-17.95 108.6-17 109.2-16.05L109.2-16.05Q110.75-13.6 110.75-10.25L110.75-10.25Q110.75-4.75 106.8-2.15 102.85 0.45 95.95 0.45L95.95 0.45Q92.55 0.45 89.52-0.13 86.5-0.7 84.9-1.43 83.3-2.15 83.3-2.75L83.3-2.75Q83.3-5.5 83.9-7.6 84.5-9.7 85.25-10.58 86-11.45 86.7-11.45L86.7-11.45Q86.9-11.45 89.35-10.55 91.8-9.65 94.17-9.65 96.55-9.65 96.55-11.15L96.55-11.15Q96.55-13.2 91.5-13.35L91.5-13.35Q89.5-13.4 89.3-13.45L89.3-13.45Q88.25-13.8 88.25-17.85 88.25-21.9 89.3-22.3L89.3-22.3Q89.5-22.4 91.5-22.4L91.5-22.4Q96.55-22.5 96.55-24.45L96.55-24.45Q96.55-25.95 94.37-25.95 92.2-25.95 89.55-24.9 86.9-23.85 86.65-23.85L86.65-23.85Q85.5-23.85 84.55-27.2 83.6-30.55 83.6-31.95L83.6-31.95Q83.6-33.25 86.5-34.6L86.5-34.6Q89.7-36.05 95.9-36.05L95.9-36.05Q110.3-36.05 110.3-26.7ZM135.49-1.2Q135.49-0.65 132.42-0.33 129.34 0 126.27 0 123.19 0 122.37-0.28 121.54-0.55 121.54-1.2L121.54-1.2 121.54-22.7 114.59-22.7Q114.04-22.7 113.64-24.1 113.24-25.5 113.24-28.28 113.24-31.05 113.84-33.27 114.44-35.5 115.44-35.5L115.44-35.5 142.49-35.5Q143.24-35.5 143.52-34.1 143.79-32.7 143.79-30.05 143.79-27.4 143.24-25.05 142.69-22.7 141.74-22.7L141.74-22.7 135.49-22.7 135.49-1.2ZM155.59-2.55Q155.49-1.1 154.07-0.55 152.64 0 148.94 0 145.24 0 142.77-0.68 140.29-1.35 140.29-2.4L140.29-2.4Q140.29-3.6 144.74-17.73 149.19-31.85 149.84-34L149.84-34Q150.09-34.65 153.87-35.08 157.64-35.5 161.97-35.5 166.29-35.5 166.74-34L166.74-34Q176.19-2.6 176.19-2.1 176.19-1.6 175.59-1.1L175.59-1.1Q174.19 0 170.04 0L170.04 0Q161.19 0 160.99-2.1L160.99-2.1 160.64-5.35 155.84-5.35 155.59-2.55ZM156.89-14.85L159.59-14.85 158.84-23.85 157.74-23.85 156.89-14.85ZM186.39 0L186.39 0Q185.14 0 182.76 0 180.39 0 179.54-0.35 178.69-0.7 178.69-1.45L178.69-1.45 178.69-33Q178.69-34.15 181.76-34.83 184.84-35.5 188.34-35.5 191.84-35.5 193.34-34.6 194.84-33.7 195.09-32.7L195.09-32.7 198.49-19.5 198.94-19.5 202.14-32.1Q202.49-33.45 205.41-34.48 208.34-35.5 211.84-35.5 215.34-35.5 217.01-34.95 218.69-34.4 218.69-33.55L218.69-33.55 218.69-1.45Q218.69-0.8 215.84-0.4 212.99 0 208.89 0 204.79 0 204.79-1.45L204.79-1.45Q204.79-5.4 205.64-15.5L205.64-15.5 205.19-15.5 202.59-2.45Q202.44-1.7 201.36-1.35 200.29-1 198.14-1 195.99-1 195.51-1.3 195.04-1.6 194.89-2.45L194.89-2.45 192.19-15.5 191.74-15.5Q192.64-5.2 192.64-1.45L192.64-1.45Q192.64-0.15 186.39 0ZM236.49-2.55Q236.39-1.1 234.96-0.55 233.54 0 229.84 0 226.14 0 223.66-0.68 221.19-1.35 221.19-2.4L221.19-2.4Q221.19-3.6 225.64-17.73 230.09-31.85 230.74-34L230.74-34Q230.99-34.65 234.76-35.08 238.54-35.5 242.86-35.5 247.19-35.5 247.64-34L247.64-34Q257.09-2.6 257.09-2.1 257.09-1.6 256.49-1.1L256.49-1.1Q255.09 0 250.94 0L250.94 0Q242.09 0 241.89-2.1L241.89-2.1 241.54-5.35 236.74-5.35 236.49-2.55ZM237.79-14.85L240.49-14.85 239.74-23.85 238.64-23.85 237.79-14.85ZM275.53 0L275.53 0 263.73 0Q261.28 0 260.43-0.35 259.58-0.7 259.58-1.5L259.58-1.5 259.58-33.05Q259.58-34.35 260.68-34.93 261.78-35.5 264.48-35.5L264.48-35.5 275.73-35.5Q285.33-35.5 288.98-31.73 292.63-27.95 292.63-18 292.63-8.05 288.83-4.03 285.03 0 275.53 0ZM275.13-28.05L275.13-28.05Q273.93-28.05 273.53-27.85L273.53-27.85 273.53-7.65 275.43-7.45Q276.93-7.45 277.71-9.85 278.48-12.25 278.48-18.15 278.48-24.05 277.68-26.05 276.88-28.05 275.13-28.05Z" opacity="1" transform="matrix(1,0,0,1,0,0)" fill="#130912" class="undefined-text-0" data-fill-palette-color="primary" id="text-0"></path></svg></g></svg></g><g transform="matrix(1,0,0,1,0,61.39544624971615)"><svg viewBox="0 0 232.209792 17.51860657019336" height="17.51860657019336" width="232.209792"><g transform="matrix(1,0,0,1,0,0)"><svg width="232.209792" viewBox="1.2699999809265137 -38.15999984741211 513.8399658203125 38.77000045776367" height="17.51860657019336" data-palette-color="#130912"><path d="M18.75-33.08L18.75-33.08Q23.32-33.08 26.54-31.49L26.54-31.49 26.54-24.02 26.49-23.97Q25.12-26.07 20.73-26.76L20.73-26.76Q19.43-26.98 17.46-26.98 15.48-26.98 13.57-26.23 11.67-25.49 10.45-24.12L10.45-24.12Q8.08-21.46 8.08-16.53L8.08-16.53Q8.08-10.79 11.08-7.98L11.08-7.98Q13.57-5.64 17.68-5.64L17.68-5.64Q22.31-5.64 25.2-7.62L25.2-7.62Q26.25-8.33 26.98-9.38L26.98-9.38 27.05-9.33 27.05-2.49Q23.32 0.61 16.99 0.61L16.99 0.61Q9.55 0.61 5.32-4.13L5.32-4.13Q1.27-8.64 1.27-16.09L1.27-16.09Q1.27-23.97 5.71-28.52L5.71-28.52Q10.21-33.08 18.75-33.08ZM31.37-12.55L31.37-12.55Q31.37-15.41 32.35-17.85 33.32-20.29 35.1-22.12L35.1-22.12Q38.91-26 45.07-26L45.07-26Q50.27-26 53.42-22.56L53.42-22.56Q56.52-19.24 56.52-14.21L56.52-14.21Q56.52-12.28 56.22-11.57L56.22-11.57Q53.78-10.89 46.29-10.89L46.29-10.89 37.69-10.89Q38.33-8.28 40.65-6.82 42.97-5.37 46.68-5.37L46.68-5.37Q50.56-5.37 53.34-6.76L53.34-6.76Q54.07-7.13 54.44-7.45L54.44-7.45Q54.39-6.42 54.32-5.35L54.32-5.35 54.05-1.54Q52.19-0.27 48.04 0.22L48.04 0.22Q46.82 0.37 45.7 0.37L45.7 0.37Q39.5 0.37 35.45-3.25L35.45-3.25Q31.37-6.88 31.37-12.55ZM50.02-15.63L50.02-15.63Q49.02-20.87 44.31-20.87L44.31-20.87Q40.6-20.87 38.67-17.68L38.67-17.68Q38.08-16.7 37.77-15.53L37.77-15.53Q38.35-15.5 39.21-15.48L39.21-15.48 41.01-15.48Q41.92-15.45 42.75-15.45L42.75-15.45 44.14-15.45Q45.38-15.45 46.58-15.48L46.58-15.48 48.58-15.55Q49.39-15.58 50.02-15.63ZM67.57-17.77L67.57-2.73Q67.57-0.63 67.67 0L67.67 0 61.59 0 61.59-25.51 67.57-25.51 67.57-23.63Q69.65-26 71.93-26 74.21-26 75.53-25.44L75.53-25.44 75.09-18.87 75-18.8Q74.14-20.31 71.45-20.31L71.45-20.31Q70.43-20.31 69.37-19.62 68.31-18.92 67.57-17.77L67.57-17.77ZM89.84-5.37L89.84-5.37Q92.99-5.37 94.16-7.01L94.16-7.01 94.35-7.01 94.43-1.34Q93.23-0.15 89.98 0.24L89.98 0.24Q89.1 0.37 87.8 0.37 86.49 0.37 84.97-0.12 83.44-0.61 82.37-1.71L82.37-1.71Q80.14-3.98 80.14-8.81L80.14-8.81 80.14-19.9 76.46-19.9Q76.43-20.61 76.43-21.34L76.43-21.34 76.43-25.1Q76.43-25.51 76.46-25.51L76.46-25.51 80.14-25.51 80.14-32.47 86.13-32.47 86.13-25.51 92.84-25.51 92.84-19.9 86.13-19.9 86.13-9.94Q86.13-6.1 88.25-5.57L88.25-5.57Q88.93-5.37 89.84-5.37ZM104.09-28.83L98.6-32.79Q100.55-35.84 102.68-38.16L102.68-38.16 107.92-34.03Q106.87-32.74 105.97-31.49L105.97-31.49Q105.97-31.49 104.09-28.83L104.09-28.83ZM105.02-25.51L105.02-2.73Q105.02-0.63 105.12 0L105.12 0 98.92 0 98.92-25.51 105.02-25.51ZM118.01-22.71L124.08-22.71Q123.89-22 123.89-19.14L123.89-19.14 123.89-16.99 118.01-16.99 118.01 0 112.02 0 112.02-16.99 108.43-16.99Q108.46-18.6 108.48-19.85L108.48-19.85 108.53-22.46 108.53-22.71 112.02-22.71 112.02-24.22Q112.02-30.08 114.76-33.64L114.76-33.64Q117.61-37.33 122.62-37.33L122.62-37.33Q124.74-37.33 125.43-37.04L125.43-37.04 125.45-30.91 125.4-30.79Q124.47-31.71 123.05-31.71 121.62-31.71 120.74-31.24 119.86-30.76 119.25-29.88L119.25-29.88Q118.01-28.13 118.01-25.07L118.01-25.07 118.01-22.71ZM133.31-28.83L127.82-32.79Q129.77-35.84 131.89-38.16L131.89-38.16 137.14-34.03Q136.09-32.74 135.19-31.49L135.19-31.49Q135.19-31.49 133.31-28.83L133.31-28.83ZM134.24-25.51L134.24-2.73Q134.24-0.63 134.34 0L134.34 0 128.13 0 128.13-25.51 134.24-25.51ZM139.9-12.55L139.9-12.55Q139.9-15.41 140.88-17.85 141.85-20.29 143.63-22.12L143.63-22.12Q147.44-26 153.6-26L153.6-26Q158.8-26 161.95-22.56L161.95-22.56Q165.05-19.24 165.05-14.21L165.05-14.21Q165.05-12.28 164.75-11.57L164.75-11.57Q162.31-10.89 154.82-10.89L154.82-10.89 146.22-10.89Q146.86-8.28 149.18-6.82 151.5-5.37 155.21-5.37L155.21-5.37Q159.09-5.37 161.87-6.76L161.87-6.76Q162.6-7.13 162.97-7.45L162.97-7.45Q162.92-6.42 162.85-5.35L162.85-5.35 162.58-1.54Q160.72-0.27 156.57 0.22L156.57 0.22Q155.35 0.37 154.23 0.37L154.23 0.37Q148.03 0.37 143.98-3.25L143.98-3.25Q139.9-6.88 139.9-12.55ZM158.55-15.63L158.55-15.63Q157.55-20.87 152.84-20.87L152.84-20.87Q149.13-20.87 147.2-17.68L147.2-17.68Q146.61-16.7 146.3-15.53L146.3-15.53Q146.88-15.5 147.74-15.48L147.74-15.48 149.54-15.48Q150.45-15.45 151.28-15.45L151.28-15.45 152.67-15.45Q153.91-15.45 155.11-15.48L155.11-15.48 157.11-15.55Q157.92-15.58 158.55-15.63ZM187.85-1.37L187.85-1.37Q184.75 0.37 181.65 0.37 178.54 0.37 176.23-0.61 173.91-1.59 172.27-3.3L172.27-3.3Q168.9-6.81 168.9-12.43L168.9-12.43Q168.9-18.24 172.81-22.09L172.81-22.09Q176.74-26 182.87-26L182.87-26Q184.75-26 186.55-25.51L186.55-25.51 186.55-36.38 192.53-36.38 192.53-10.28Q192.53-7.03 192.84-6.03 193.14-5.03 193.52-4.57 193.9-4.1 194.49-3.69L194.49-3.69 189.9 0.37Q188.63-0.32 187.85-1.37ZM182.79-5.25L182.79-5.25Q184.84-5.25 186.55-6.03L186.55-6.03 186.55-19.56Q184.84-20.26 182.84-20.26 180.84-20.26 179.41-19.73 177.98-19.19 176.96-18.24L176.96-18.24Q174.81-16.24 174.81-13.04L174.81-13.04Q174.81-9.55 176.76-7.47L176.76-7.47Q178.86-5.25 182.79-5.25ZM232.98-1.51L232.98-1.51Q229.52 0.37 226.71 0.37 223.9 0.37 221.9-0.16 219.9-0.68 218.51-1.71L218.51-1.71Q215.67-3.78 215.67-7.71L215.67-7.71Q215.67-11.23 219.14-13.57L219.14-13.57Q222.9-16.11 229.35-16.11L229.35-16.11 230.32-16.09Q230.61-16.06 230.98-16.05 231.35-16.04 231.64-15.99L231.64-15.99Q231.44-19.9 228.27-20.56L228.27-20.56Q227.22-20.78 226.04-20.78 224.85-20.78 223.72-20.57 222.58-20.36 221.51-20.02L221.51-20.02Q219.14-19.26 218.11-18.29L218.11-18.29 218.04-18.33 217.31-23.73Q221.63-26 226.76-26L226.76-26Q234.72-26 236.94-20.26L236.94-20.26Q237.65-18.43 237.65-16.14L237.65-16.14 237.65-7.3Q237.65-4.47 239.65-3.44L239.65-3.44 235.23 0.61Q233.84-0.12 232.98-1.51ZM231.66-6.49L231.66-11.6Q231.01-11.72 230.3-11.72L230.3-11.72 229.32-11.72Q223.93-11.72 222.46-9.33L222.46-9.33Q222.02-8.62 222.02-7.84 222.02-7.06 222.3-6.46 222.58-5.86 223.24-5.47L223.24-5.47Q224.51-4.74 227.01-4.74 229.52-4.74 231.69-5.93L231.69-5.93Q231.66-6.2 231.66-6.49L231.66-6.49ZM253.85 0.37L253.85 0.37Q246.97 0.37 243.48-2.15L243.48-2.15Q243.53-2.88 243.62-3.81L243.62-3.81 243.84-5.57Q244.04-7.3 244.09-7.73 244.14-8.15 244.16-8.19 244.19-8.23 244.55-7.8 244.92-7.37 245.94-6.76 246.97-6.15 248.31-5.69L248.31-5.69Q251.22-4.69 254.37-4.69L254.37-4.69Q258.59-4.69 258.59-7.5L258.59-7.5Q258.59-8.4 257.79-8.84L257.79-8.84Q256.34-9.57 253.55-9.95 250.75-10.33 248.97-11.06 247.19-11.79 246.07-12.82L246.07-12.82Q243.99-14.75 243.99-17.87L243.99-17.87Q243.99-21.68 246.92-23.85L246.92-23.85Q249.83-26 254.95-26L254.95-26Q260.03-26 263.62-23.12L263.62-23.12Q263.45-22.49 263.25-21.9L263.25-21.9Q262.69-20.29 262.42-19.58L262.42-19.58 261.86-18.14Q261.81-17.94 261.79-17.94L261.79-17.94Q261.74-17.94 261.4-18.46L261.4-18.46Q259.86-20.24 256.61-20.8L256.61-20.8Q255.61-21 254.56-21L254.56-21Q250.12-21 250.12-18.31L250.12-18.31Q250.12-17.38 251.05-16.89L251.05-16.89Q252.78-15.97 255.8-15.53 258.81-15.09 260.37-14.34 261.94-13.6 262.89-12.55L262.89-12.55Q264.65-10.64 264.65-7.5L264.65-7.5Q264.65-4.05 261.89-1.9L261.89-1.9Q259.01 0.37 253.85 0.37ZM278.9 0.37L278.9 0.37Q272.02 0.37 268.52-2.15L268.52-2.15Q268.57-2.88 268.67-3.81L268.67-3.81 268.89-5.57Q269.09-7.3 269.14-7.73 269.18-8.15 269.21-8.19 269.23-8.23 269.6-7.8 269.97-7.37 270.99-6.76 272.02-6.15 273.36-5.69L273.36-5.69Q276.26-4.69 279.41-4.69L279.41-4.69Q283.64-4.69 283.64-7.5L283.64-7.5Q283.64-8.4 282.83-8.84L282.83-8.84Q281.39-9.57 278.6-9.95 275.8-10.33 274.02-11.06 272.24-11.79 271.11-12.82L271.11-12.82Q269.04-14.75 269.04-17.87L269.04-17.87Q269.04-21.68 271.97-23.85L271.97-23.85Q274.87-26 280-26L280-26Q285.08-26 288.67-23.12L288.67-23.12Q288.5-22.49 288.3-21.9L288.3-21.9Q287.74-20.29 287.47-19.58L287.47-19.58 286.91-18.14Q286.86-17.94 286.84-17.94L286.84-17.94Q286.79-17.94 286.44-18.46L286.44-18.46Q284.91-20.24 281.66-20.8L281.66-20.8Q280.66-21 279.61-21L279.61-21Q275.17-21 275.17-18.31L275.17-18.31Q275.17-17.38 276.09-16.89L276.09-16.89Q277.83-15.97 280.84-15.53 283.86-15.09 285.42-14.34 286.98-13.6 287.93-12.55L287.93-12.55Q289.69-10.64 289.69-7.5L289.69-7.5Q289.69-4.05 286.93-1.9L286.93-1.9Q284.05 0.37 278.9 0.37ZM294.13-12.55L294.13-12.55Q294.13-15.41 295.11-17.85 296.09-20.29 297.87-22.12L297.87-22.12Q301.68-26 307.83-26L307.83-26Q313.03-26 316.18-22.56L316.18-22.56Q319.28-19.24 319.28-14.21L319.28-14.21Q319.28-12.28 318.99-11.57L318.99-11.57Q316.54-10.89 309.05-10.89L309.05-10.89 300.46-10.89Q301.09-8.28 303.41-6.82 305.73-5.37 309.44-5.37L309.44-5.37Q313.32-5.37 316.11-6.76L316.11-6.76Q316.84-7.13 317.2-7.45L317.2-7.45Q317.16-6.42 317.08-5.35L317.08-5.35 316.81-1.54Q314.96-0.27 310.81 0.22L310.81 0.22Q309.59 0.37 308.46 0.37L308.46 0.37Q302.26 0.37 298.21-3.25L298.21-3.25Q294.13-6.88 294.13-12.55ZM312.78-15.63L312.78-15.63Q311.78-20.87 307.07-20.87L307.07-20.87Q303.36-20.87 301.43-17.68L301.43-17.68Q300.85-16.7 300.53-15.53L300.53-15.53Q301.11-15.5 301.97-15.48L301.97-15.48 303.78-15.48Q304.68-15.45 305.51-15.45L305.51-15.45 306.9-15.45Q308.15-15.45 309.34-15.48L309.34-15.48 311.34-15.55Q312.15-15.58 312.78-15.63ZM333.17 0.37L333.17 0.37Q326.28 0.37 322.79-2.15L322.79-2.15Q322.84-2.88 322.94-3.81L322.94-3.81 323.16-5.57Q323.35-7.3 323.4-7.73 323.45-8.15 323.48-8.19 323.5-8.23 323.87-7.8 324.23-7.37 325.26-6.76 326.28-6.15 327.63-5.69L327.63-5.69Q330.53-4.69 333.68-4.69L333.68-4.69Q337.9-4.69 337.9-7.5L337.9-7.5Q337.9-8.4 337.1-8.84L337.1-8.84Q335.66-9.57 332.86-9.95 330.07-10.33 328.29-11.06 326.5-11.79 325.38-12.82L325.38-12.82Q323.3-14.75 323.3-17.87L323.3-17.87Q323.3-21.68 326.23-23.85L326.23-23.85Q329.14-26 334.27-26L334.27-26Q339.34-26 342.93-23.12L342.93-23.12Q342.76-22.49 342.57-21.9L342.57-21.9Q342.01-20.29 341.74-19.58L341.74-19.58 341.18-18.14Q341.13-17.94 341.1-17.94L341.1-17.94Q341.05-17.94 340.71-18.46L340.71-18.46Q339.17-20.24 335.93-20.8L335.93-20.8Q334.93-21 333.88-21L333.88-21Q329.43-21 329.43-18.31L329.43-18.31Q329.43-17.38 330.36-16.89L330.36-16.89Q332.09-15.97 335.11-15.53 338.12-15.09 339.69-14.34 341.25-13.6 342.2-12.55L342.2-12.55Q343.96-10.64 343.96-7.5L343.96-7.5Q343.96-4.05 341.2-1.9L341.2-1.9Q338.32 0.37 333.17 0.37ZM358.21 0.37L358.21 0.37Q351.33 0.37 347.84-2.15L347.84-2.15Q347.89-2.88 347.98-3.81L347.98-3.81 348.2-5.57Q348.4-7.3 348.45-7.73 348.5-8.15 348.52-8.19 348.55-8.23 348.91-7.8 349.28-7.37 350.3-6.76 351.33-6.15 352.67-5.69L352.67-5.69Q355.58-4.69 358.73-4.69L358.73-4.69Q362.95-4.69 362.95-7.5L362.95-7.5Q362.95-8.4 362.15-8.84L362.15-8.84Q360.7-9.57 357.91-9.95 355.11-10.33 353.33-11.06 351.55-11.79 350.43-12.82L350.43-12.82Q348.35-14.75 348.35-17.87L348.35-17.87Q348.35-21.68 351.28-23.85L351.28-23.85Q354.19-26 359.31-26L359.31-26Q364.39-26 367.98-23.12L367.98-23.12Q367.81-22.49 367.61-21.9L367.61-21.9Q367.05-20.29 366.78-19.58L366.78-19.58 366.22-18.14Q366.17-17.94 366.15-17.94L366.15-17.94Q366.1-17.94 365.76-18.46L365.76-18.46Q364.22-20.24 360.97-20.8L360.97-20.8Q359.97-21 358.92-21L358.92-21Q354.48-21 354.48-18.31L354.48-18.31Q354.48-17.38 355.41-16.89L355.41-16.89Q357.14-15.97 360.16-15.53 363.17-15.09 364.73-14.34 366.3-13.6 367.25-12.55L367.25-12.55Q369.01-10.64 369.01-7.5L369.01-7.5Q369.01-4.05 366.25-1.9L366.25-1.9Q363.37 0.37 358.21 0.37ZM381.26-17.16L381.26-7.06Q381.26-1.56 381.45 0L381.45 0 375.08 0 375.08-25.51 381.26-25.51 381.26-23.32Q384.6-26 388.12-26L388.12-26Q392.27-26 394.15-22.41L394.15-22.41Q396.03-24.34 397.27-24.95L397.27-24.95Q399.35-26 401.44-26 403.52-26 404.99-25.29 406.45-24.58 407.41-23.29L407.41-23.29Q409.34-20.68 409.34-16.11L409.34-16.11 409.34-6.4Q409.34-2.27 409.46-1.44 409.58-0.61 409.79-0.37 409.99-0.12 410.14 0.07L410.14 0.07 410.09 0.17Q408.14 0 407.21 0L407.21 0 405.38 0Q404.48 0 403.16 0.07L403.16 0.07 403.16-13.13Q403.16-18.85 401.4-19.92L401.4-19.92Q400.81-20.26 400.02-20.26 399.23-20.26 398.62-20.08 398.01-19.9 397.47-19.48L397.47-19.48Q396.57-18.82 395.42-16.89L395.42-16.89Q395.44-16.7 395.44-16.5 395.44-16.31 395.44-10.06 395.44-3.81 395.74 0L395.74 0Q393.66 0 392.21 0 390.76 0 389.44 0.07L389.44 0.07 389.44-13.16Q389.44-17.14 388.96-18.33 388.49-19.53 387.95-19.9 387.41-20.26 386.63-20.26L386.63-20.26Q383.41-20.26 381.26-17.16L381.26-17.16ZM415.19-12.55L415.19-12.55Q415.19-15.41 416.17-17.85 417.15-20.29 418.93-22.12L418.93-22.12Q422.74-26 428.89-26L428.89-26Q434.09-26 437.24-22.56L437.24-22.56Q440.34-19.24 440.34-14.21L440.34-14.21Q440.34-12.28 440.05-11.57L440.05-11.57Q437.6-10.89 430.11-10.89L430.11-10.89 421.52-10.89Q422.15-8.28 424.47-6.82 426.79-5.37 430.5-5.37L430.5-5.37Q434.38-5.37 437.16-6.76L437.16-6.76Q437.9-7.13 438.26-7.45L438.26-7.45Q438.21-6.42 438.14-5.35L438.14-5.35 437.87-1.54Q436.02-0.27 431.87 0.22L431.87 0.22Q430.65 0.37 429.52 0.37L429.52 0.37Q423.32 0.37 419.27-3.25L419.27-3.25Q415.19-6.88 415.19-12.55ZM433.84-15.63L433.84-15.63Q432.84-20.87 428.13-20.87L428.13-20.87Q424.42-20.87 422.49-17.68L422.49-17.68Q421.91-16.7 421.59-15.53L421.59-15.53Q422.17-15.5 423.03-15.48L423.03-15.48 424.84-15.48Q425.74-15.45 426.57-15.45L426.57-15.45 427.96-15.45Q429.21-15.45 430.4-15.48L430.4-15.48 432.4-15.55Q433.21-15.58 433.84-15.63ZM452.05-17.07L452.05-3.13Q452.05-0.98 452.25 0L452.25 0 446.12 0 446.12-25.51 452.05-25.51 452.05-23.34Q455.28-26 458.94-26L458.94-26Q462.94-26 465.34-23.28 467.73-20.56 467.73-16.11L467.73-16.11 467.73-6.4Q467.73-2.27 467.85-1.44 467.97-0.61 468.18-0.37 468.39-0.12 468.53 0.07L468.53 0.07 468.49 0.17Q466.51 0 465.6 0L465.6 0 463.9 0Q463.11 0 461.8 0.07L461.8 0.07 461.8-13.23Q461.8-20.39 457.45-20.39L457.45-20.39Q454.23-20.39 452.05-17.07L452.05-17.07ZM486.18-5.37L486.18-5.37Q489.33-5.37 490.5-7.01L490.5-7.01 490.7-7.01 490.77-1.34Q489.58-0.15 486.33 0.24L486.33 0.24Q485.45 0.37 484.14 0.37 482.84 0.37 481.31-0.12 479.79-0.61 478.71-1.71L478.71-1.71Q476.49-3.98 476.49-8.81L476.49-8.81 476.49-19.9 472.8-19.9Q472.78-20.61 472.78-21.34L472.78-21.34 472.78-25.1Q472.78-25.51 472.8-25.51L472.8-25.51 476.49-25.51 476.49-32.47 482.47-32.47 482.47-25.51 489.19-25.51 489.19-19.9 482.47-19.9 482.47-9.94Q482.47-6.1 484.6-5.57L484.6-5.57Q485.28-5.37 486.18-5.37ZM504.32 0.37L504.32 0.37Q497.44 0.37 493.94-2.15L493.94-2.15Q493.99-2.88 494.09-3.81L494.09-3.81 494.31-5.57Q494.51-7.3 494.55-7.73 494.6-8.15 494.63-8.19 494.65-8.23 495.02-7.8 495.38-7.37 496.41-6.76 497.44-6.15 498.78-5.69L498.78-5.69Q501.68-4.69 504.83-4.69L504.83-4.69Q509.06-4.69 509.06-7.5L509.06-7.5Q509.06-8.4 508.25-8.84L508.25-8.84Q506.81-9.57 504.01-9.95 501.22-10.33 499.44-11.06 497.66-11.79 496.53-12.82L496.53-12.82Q494.46-14.75 494.46-17.87L494.46-17.87Q494.46-21.68 497.39-23.85L497.39-23.85Q500.29-26 505.42-26L505.42-26Q510.5-26 514.09-23.12L514.09-23.12Q513.91-22.49 513.72-21.9L513.72-21.9Q513.16-20.29 512.89-19.58L512.89-19.58 512.33-18.14Q512.28-17.94 512.25-17.94L512.25-17.94Q512.21-17.94 511.86-18.46L511.86-18.46Q510.33-20.24 507.08-20.8L507.08-20.8Q506.08-21 505.03-21L505.03-21Q500.58-21 500.58-18.31L500.58-18.31Q500.58-17.38 501.51-16.89L501.51-16.89Q503.25-15.97 506.26-15.53 509.28-15.09 510.84-14.34 512.4-13.6 513.35-12.55L513.35-12.55Q515.11-10.64 515.11-7.5L515.11-7.5Q515.11-4.05 512.35-1.9L512.35-1.9Q509.47 0.37 504.32 0.37Z" opacity="1" transform="matrix(1,0,0,1,0,0)" fill="#130912" class="undefined-text-1" data-fill-palette-color="secondary" id="text-1"></path></svg></g></svg></g></svg></g></svg></g><g><svg viewBox="0 0 181.288858972914 181.288858972914" height="181.288858972914" width="181.288858972914"><g><svg></svg></g><g id="icon-0"><svg viewBox="0 0 181.288858972914 181.288858972914" height="181.288858972914" width="181.288858972914"><g><rect width="164.8385736216681" height="164.8385736216681" x="8.225142675622948" y="8.225142675622948" fill="#e77917" data-fill-palette-color="accent"></rect><rect width="164.8385736216681" height="164.8385736216681" x="16.450285351245896" y="-1.7763568394002505e-15" fill="#e77917" opacity="0.5" data-fill-palette-color="accent"></rect></g><g transform="matrix(1,0,0,1,30.643391960731073,23.500407644636994)"><svg viewBox="0 0 120.00207505145185 134.28804368364" height="134.28804368364" width="120.00207505145185"><g><svg xmlns="http://www.w3.org/2000/svg" xmlns:xlink="http://www.w3.org/1999/xlink" version="1.1" x="0" y="0" viewBox="9.777876853942871 4.991581439971924 80.44287872314453 90.01941680908203" enable-background="new 0 0 100 100" xml:space="preserve" height="134.28804368364" width="120.00207505145185" class="icon-c-0" data-fill-palette-color="background" id="c-0"><g fill="#fafafa" data-fill-palette-color="background"><path fill-rule="evenodd" clip-rule="evenodd" d="M86.414 8.71c0.866 0.267 1.533 0.916 2 1.949 0.934 2.101 1.5 3.917 1.7 5.45 0.267 1.967 0.033 3.833-0.7 5.601-0.233 0.566-0.867 1-1.9 1.3-1 0.233-1.933 0.25-2.8 0.05-0.7-0.333-1.217-0.583-1.55-0.75-0.634-0.233-1.2-0.15-1.7 0.25-0.5 0.434-0.767 1.017-0.8 1.75l0.149 1.95c0.434 6 0.667 13.133 0.7 21.399 0 9.5 0.033 16.617 0.101 21.351 0.033 1.967-0.167 4.316-0.601 7.05-0.533 3.133-0.899 5.467-1.1 7-0.2 1.267-0.95 2.283-2.25 3.05-7.233 4.333-14.017 6.267-20.351 5.8-0.6-0.033-2.25-0.05-4.949-0.05-2.5 0.3-5.733 0.316-9.7 0.05-4.8-0.333-7.917-0.483-9.351-0.449-2.066 0.066-3.982-0.45-5.75-1.551-1.433-0.833-2.982-2.149-4.649-3.949-2.934-3.167-4.816-6.233-5.65-9.2-0.1-0.334-0.533-0.851-1.3-1.55-0.8-0.567-1.05-1.15-0.75-1.75 0.4-0.7 0.967-1.051 1.7-1.051 1.167 0.067 2.684-0.05 4.55-0.35 2.434-0.4 3.967-0.634 4.6-0.7 1.134-0.033 1.851-0.217 2.15-0.55 0.233-0.3 0.2-0.95-0.1-1.95-0.533-1.767-1.051-4.133-1.551-7.1-0.633-3.767-1.05-6.15-1.25-7.15-1.899-9.2-2.517-18.083-1.85-26.649 0.467-5.5 1.483-9.867 3.05-13.101 1.233-2.5 2.783-4.033 4.65-4.6 0.399-0.101 2.633-0.983 6.7-2.65 2.733-1.066 5.083-1.649 7.05-1.75 0.866-0.066 2.899-0.149 6.1-0.25 2.634-0.1 4.7-0.25 6.2-0.45 2.467-0.3 5.816-0.199 10.05 0.301 4.8 0.566 8.15 0.816 10.05 0.75 1.334-0.034 2.884 0.267 4.65 0.899C82.964 7.442 84.447 7.977 86.414 8.71zM72.464 11.81c0 0.8-0.5 1.2-1.5 1.2l-3.1-0.45c-5.4-0.6-9.483-0.85-12.25-0.75-1.101 0-1.667-0.267-1.7-0.8-0.066-0.8 0.517-1.2 1.75-1.2l12.5 0.9c1.033-0.034 2-0.084 2.899-0.15C71.997 10.56 72.464 10.977 72.464 11.81zM78.813 11.909c0.334 0 1.217 0.101 2.65 0.301 0.833 0 1.15 0.366 0.95 1.1s-0.617 1.083-1.25 1.05c-1.467-0.267-2.351-0.45-2.65-0.55-1.033-0.3-2-0.816-2.899-1.55C76.647 11.96 77.714 11.843 78.813 11.909zM87.864 18.71c0.3-2.967-0.267-5.034-1.7-6.2-3.434-2.867-6.45-4.25-9.05-4.15-2.967 0.101-6.584-0.25-10.851-1.05-1.533-0.233-2.95-0.283-4.25-0.15-2.399 0.367-5.133 0.5-8.2 0.4-1.466-0.066-3.399 0.05-5.8 0.35-2.967 0.4-4.883 0.617-5.75 0.65-2.033 0.2-3.467 0.75-4.3 1.65 1.733 2.166 2.884 5.066 3.45 8.699 0.2 1.601 0.917 2.267 2.149 2 1.534-0.3 3.434-0.449 5.7-0.449 1.267 0 3.167 0 5.7 0 6.733-0.101 16.85-0.101 30.35 0C86.881 20.46 87.73 19.876 87.864 18.71zM59.063 48.31c3.834-0.467 6.75-0.384 8.75 0.25l-8.5 1.6c-0.833 0.101-1.3-0.083-1.399-0.55C57.714 48.909 58.098 48.477 59.063 48.31zM58.914 38.06c0.066 0.5-0.101 1-0.5 1.5-0.134 0.167-0.851 0.767-2.15 1.8-6.133 4.5-9.55 7-10.25 7.5-1.399 1.066-2.1 1.95-2.1 2.65 0.066 0.633 0.833 1.366 2.3 2.2 2.566 1.399 4.25 2.517 5.05 3.35 2 2.1 2.167 4.184 0.5 6.25-0.133 0.2-1.05 1.15-2.75 2.85-0.733 0.634-1.3 1.101-1.7 1.4-0.666 0.533-1.05 1.05-1.149 1.55-0.2 0.733 0.066 1.367 0.8 1.9 0.434 0.3 1.1 0.717 2 1.25 1.367 1.3 2 2.783 1.9 4.45-0.101 1.633-0.851 3.083-2.25 4.35-2 1.633-3.483 2.866-4.45 3.7-1.767 1.467-3.2 2.866-4.3 4.2 1.866 0.6 3.517 0.5 4.949-0.301 1.534-0.866 2.983-1.866 4.351-3 1.967-1.699 3.667-2.767 5.1-3.199-0.633 1.033-1.733 2.25-3.3 3.649-1.833 1.5-3.05 2.634-3.65 3.4 2 0.267 3.268 0.333 3.801 0.2 0.533-0.101 1.517-0.667 2.949-1.7 1.268-0.934 4.167-2.8 8.7-5.601-0.433 1.167-1.416 2.351-2.95 3.551-1.833 1.399-2.982 2.5-3.449 3.3l1.699 0.149c0.867-0.033 2.134 0 3.801 0.101 0.866 0.033 1.366-0.3 1.5-1 0.1-0.834 0.217-1.3 0.35-1.4 0.566-0.333 1.417-0.95 2.55-1.85 1.033-0.733 2.033-1.217 3-1.45-0.2 0.833-0.783 1.667-1.75 2.5-1.133 0.9-1.8 1.633-2 2.2 1.134 0.1 2.334-0.134 3.601-0.7 0.733-0.3 1.816-0.8 3.25-1.5 3.1-1.167 4.949-3.434 5.55-6.8 1.033-5.467 1.55-9.783 1.55-12.95l-0.2-33.95c0-1-0.133-2.684-0.399-5.05-0.233-2.1-0.301-3.75-0.2-4.95-7.833-0.434-18.55-0.399-32.15 0.101l-3.25 0.149c-1.267 0.134-2.267 0.617-3 1.45-0.566 0.533-1.033 0.434-1.399-0.3-0.367-0.667-0.817-1-1.351-1-0.3 0.033-0.816 0.267-1.55 0.7-1.1 0.699-2.45 1.732-4.05 3.1-1.967 1.633-3.3 2.7-4 3.2-1.267 0.899-2.083 1.95-2.45 3.149-0.3 1.101-0.217 2.483 0.25 4.15 1.467-1.134 3.634-2.85 6.5-5.15 2.5-1.933 4.767-3.416 6.8-4.449-0.2 0.6-0.55 1.166-1.05 1.699-0.066 0.101-0.533 0.551-1.4 1.351l-9.449 7.95-1.2 0.85c-0.601 0.566-0.617 1.2-0.05 1.9 0.366 0.433 0.883 0.383 1.55-0.15l5.8-4.65c0.566-0.399 0.9-0.616 1-0.649 0.434-0.267 0.967-0.317 1.6-0.15-0.633 0.533-2.083 1.934-4.35 4.2-1.667 1.633-3.116 2.816-4.35 3.55-0.733 0.434-1.051 0.95-0.95 1.55 0.033 0.934 0.066 1.65 0.1 2.15 0.101 0.833 0.384 1.55 0.851 2.15 2.633-1.934 4.25-3.067 4.85-3.4 0.533-0.3 1.3-0.85 2.3-1.65 1-0.633 1.934-0.983 2.8-1.05-0.3 0.7-0.783 1.316-1.449 1.851-0.801 0.6-1.367 1.05-1.7 1.35l-5.95 4.5c-1.167 0.9-1.35 1.816-0.55 2.75 0.333 0.5 0.75 0.616 1.25 0.35 0.233-0.1 0.6-0.35 1.1-0.75 0.533-0.267 1.634-1.05 3.3-2.35 1.434-1.066 2.768-1.884 4-2.45-2.267 2.867-4.683 5.134-7.25 6.8-0.833 0.567-1.366 1.134-1.6 1.7-0.267 0.566-0.267 1.316 0 2.25 0.233 0.967 0.5 1.533 0.8 1.7 0.3 0.1 0.867-0.134 1.7-0.7l8.3-5.45c0.467-0.333 0.733-0.533 0.8-0.6 0.4-0.1 0.784 0.05 1.15 0.45l-10 7.7c-1 0.732-1.55 1.267-1.65 1.6-0.033 0.366 0.268 1.233 0.9 2.6 1.033-0.233 2.117-0.833 3.25-1.8 1.6-1.366 2.55-2.116 2.85-2.25 0.601-0.399 1.518-1.066 2.75-2 1.067-0.7 2.101-1.149 3.101-1.35-2.7 2.566-6.2 5.517-10.5 8.85-0.467 0.367-0.8 0.65-1 0.851-0.3 0.3-0.333 0.616-0.101 0.949 0.301 0.434 0.467 1.101 0.5 2 0.067 1.033 0.167 1.767 0.301 2.2 0.566-0.2 1.383-0.717 2.449-1.55 1.034-0.8 1.967-1.316 2.801-1.55-0.4 0.7-0.934 1.416-1.601 2.149-0.833 0.834-1.35 1.4-1.55 1.7-0.8 0.733-1.366 1.3-1.7 1.7-0.6 0.733-0.75 1.6-0.45 2.6 0.801-0.399 2.134-1.3 4-2.699 1.567-1.167 2.884-1.95 3.95-2.351-1.3 1.634-3.467 3.684-6.5 6.15-3.1 2.6-5.267 4.616-6.5 6.05 1.2 0.8 2.317 1.116 3.351 0.95 0.967-0.101 2.017-0.667 3.149-1.7 1.4-1.233 3.134-2.65 5.2-4.25 1.167-0.9 2.967-2.267 5.4-4.1 0.133-0.101 0.366-0.301 0.699-0.601 0.367-0.133 0.7 0 1 0.4-0.199 0.433-0.533 0.85-1 1.25-0.566 0.433-0.982 0.75-1.25 0.95l-8.399 7.05c-0.434 0.333-0.733 0.6-0.9 0.8-0.3 0.4-0.3 0.783 0 1.15 0.7 0.866 1.567 1.149 2.601 0.85 0.133-0.066 0.6-0.417 1.399-1.05 0.101-0.101 1.65-1.283 4.65-3.55 1.866-1.434 3.45-2.567 4.75-3.4 1.399-0.934 2.033-2.434 1.899-4.5-0.1-1.233-0.833-2.4-2.199-3.5l-2.801-2.05c-0.8-0.601-1.199-1.084-1.199-1.45 0-0.4 0.366-0.917 1.1-1.55 0.733-0.7 1.917-1.667 3.55-2.9 1.167-1.1 2-1.934 2.5-2.5 0.733-0.934 1.05-1.75 0.95-2.45-0.033-0.633-0.517-1.333-1.45-2.1-0.5-0.367-1.8-1.15-3.899-2.35-1.834-1.067-3.051-2.167-3.65-3.301-0.833-1.433-0.566-2.616 0.8-3.55 2.733-1.667 5.184-3.316 7.351-4.95 0.733-0.5 1.833-1.267 3.3-2.3 1.233-1 2.149-2.083 2.75-3.25-1.833-0.733-3.533-1.25-5.101-1.55-4.833-0.833-9.05-0.733-12.649 0.3-0.867 0.2-1.384 0.101-1.55-0.3-0.233-0.434-0.184-0.75 0.149-0.95 0.101-0.1 0.4-0.233 0.9-0.399 6.066-1.967 12.866-1.5 20.399 1.399C58.598 37.06 58.881 37.46 58.914 38.06zM85.714 35.159c-0.066 2.667-0.133 4.25-0.2 4.75-0.233 2.301-0.166 6.167 0.2 11.601 0.066 0.733 0.1 1.133 0.1 1.2-0.066 0.433-0.333 0.666-0.8 0.699-1.033 0.067-1.55-0.566-1.55-1.899l0.05-8.3c-0.133-2.101 0.117-6.5 0.75-13.2 0.101-1 0.467-1.467 1.101-1.4 1 0.033 1.35 0.65 1.05 1.851C86.047 31.692 85.813 33.26 85.714 35.159zM85.864 61.26c0.066 0.8 0.066 1.316 0 1.55-0.267 1.2-0.783 1.75-1.551 1.65-0.866-0.101-1.133-0.9-0.8-2.4 0.167-1.367 0.317-2.25 0.45-2.65 0.2-0.933 0.717-1.3 1.55-1.1 0.7 0.2 0.9 0.667 0.601 1.4C85.947 60.109 85.864 60.626 85.864 61.26zM61.164 58.96c1.066 0.267 2.684 0.416 4.85 0.449 2.167 0.067 3.8 0.217 4.9 0.45-2.733 1.566-6.117 1.934-10.15 1.101-0.733-0.101-0.983-0.534-0.75-1.301C60.313 59.06 60.697 58.826 61.164 58.96zM59.313 71.76h5.9c-1.233 1.233-3.233 1.85-6 1.85-0.633 0-0.9-0.316-0.8-0.95C58.414 72.06 58.714 71.76 59.313 71.76zM69.514 93.56c0-0.4 0.217-0.55 0.65-0.45 4.233 0.2 7.917-1.866 11.05-6.2l1.2-2.149c0.399-0.733 0.866-0.983 1.399-0.75 0.801 0.399 0.95 1.017 0.45 1.85-1.033 1.634-1.85 2.767-2.45 3.4-2.833 3.267-6 5.183-9.5 5.75-0.899 0-1.449 0-1.649 0-0.4-0.101-0.717-0.267-0.95-0.5S69.414 93.96 69.514 93.56zM37.964 14.409c-0.6-1.633-1.9-2.399-3.9-2.3-1.232 0.066-2.199 0.351-2.899 0.851-0.634 0.433-1.15 1.216-1.55 2.35 0.399-0.066 1.066-0.434 2-1.1 0.833-0.601 1.6-0.801 2.3-0.601-0.467 0.833-1.9 2.217-4.3 4.15-1.967 1.5-3.033 3.217-3.2 5.149 0.899-0.433 2.483-1.5 4.75-3.199 1.934-1.4 3.6-2.334 5-2.801-0.2 0.601-0.733 1.351-1.601 2.25-0.633 0.567-1.966 1.617-4 3.15-1.666 1.333-2.949 2.467-3.85 3.4-0.533 0.6-0.85 1.1-0.95 1.5-0.2 0.566-0.1 1.199 0.3 1.899 6.534-4.733 10.351-7.434 11.45-8.1 1.267-0.9 1.733-2.084 1.4-3.55L37.964 14.409zM18.214 20.01c0.267-1.267 0.884-3.033 1.85-5.3 0.167-0.334 0.417-0.551 0.75-0.65 0.367-0.1 0.717-0.05 1.051 0.15 0.3 0.133 0.449 0.35 0.449 0.649 0 0.134-0.05 0.434-0.149 0.9-0.467 1.066-0.783 1.866-0.95 2.399-0.4 1-0.633 1.867-0.7 2.601-0.1 1.2-0.616 1.666-1.55 1.399-0.4-0.1-0.65-0.35-0.75-0.75C18.181 21.176 18.181 20.71 18.214 20.01zM17.214 28.06c0.6 0.267 0.8 0.8 0.6 1.6-0.566 2.434-0.666 5.217-0.3 8.351 0.233 2.8 0.434 4.916 0.601 6.35 0.267 2.4 0.75 4.434 1.449 6.101 0.5 1.199 0.184 1.949-0.949 2.25-0.9 0.333-1.5-0.184-1.801-1.551-0.433-2.233-0.816-4.85-1.149-7.85-0.2-1.733-0.45-4.35-0.75-7.85-0.101-1.567 0.167-3.65 0.8-6.25C15.914 28.21 16.414 27.826 17.214 28.06zM18.164 68.51l-6.15 1.7c-1.233 0-1.85-0.351-1.85-1.051 0-0.333 0.149-0.649 0.45-0.949 0.267-0.233 0.6-0.334 1-0.301 1.967 0.2 3.833-0.316 5.6-1.55 0.733-0.434 1.3-0.267 1.7 0.5C19.348 67.692 19.098 68.243 18.164 68.51zM22.464 74.06c-1.233 0.333-1.934 0.5-2.1 0.5-0.967 0-1.25 0.467-0.851 1.4 0.367 1.1 0.95 1.399 1.75 0.899 1.733-1 2.884-1.917 3.45-2.75C24.047 73.81 23.297 73.793 22.464 74.06zM25.764 80.46c-0.833 0.732-1.399 1.533-1.7 2.399 1.233-0.2 2.167-0.633 2.801-1.3 0.633-0.667 1.05-1.75 1.25-3.25C26.98 79.31 26.197 80.026 25.764 80.46zM22.614 80.56c2.6-1.3 4.683-3.1 6.25-5.4 0.066-0.066 0-0.633-0.2-1.699l-6.8 5.3c-0.5 0.399-0.65 0.816-0.45 1.25C21.813 80.51 22.214 80.692 22.614 80.56zM19.514 86.909c0.634 0.533 1.217 1.117 1.75 1.75 0.4 0.4 0.467 0.817 0.2 1.25-0.366 0.5-0.633 0.733-0.8 0.7-1.167-0.066-2.117-0.434-2.851-1.1-3.1-2.834-5.716-6.8-7.85-11.9-0.333-1-0.217-1.6 0.35-1.8 0.768-0.3 1.384-0.083 1.851 0.65 0.267 0.399 0.566 1.017 0.899 1.85C14.397 81.876 16.547 84.743 19.514 86.909z" fill="#fafafa" data-fill-palette-color="background"></path></g></svg></g></svg></g></svg></g></svg></g></svg></g><defs></defs></svg><rect width="395.52" height="121.8337225910661" fill="none" stroke="none" visibility="hidden"></rect></g></svg></g></svg>